:SAMPLES-PER-SECOND 30
:FULLY-SPECIFIED
:DEGREES
581
root  -30.9987 38.5171 -2.52097 13.4026 -79.9451 -19.2263
RightUpLeg  -16.9652 -5.57107 2.63526
RightLeg  25.8449 0.968327 0.273404
RightFoot  -3.52349 0.165049 -2.74623
RightToes  -2.9104e-010 0 -3.6325e-017
Spine  8.98612 -3.61567 2.41731
Spine1  3.73522 -4.5699 8.54446
HEad  -12.0683 -0.435741 -1.38865
LeftShoulder1  -1.18764 6.69396 -31.0449
LeftArm  -13.7746 19.25 -33.9722
LeftForeArm  19.3722 -16.2717 -3.22526
LeftHand  -0.035869 6.65851 0.146351
RightShoulder  -1.45784 -7.8125 27.3531
RightArm  -11.8445 -38.8717 35.4396
RightForeArm  -25.0883 4.45497 -4.17715
RightHand  -0.428102 4.66153 -5.23154
LeftUpLeg  2.73202 -1.07193 5.76302
LeftLeg  47.7975 -3.65282 -3.81442
LeftFoot  -1.87761 0.673693 -8.87996
LeftToes  -3.37426e-010 -1.91496e-010 5.23909e-011
582
root  -32.0474 38.6056 -2.53211 17.0268 -80.5821 -22.9729
RightUpLeg  -15.2682 -5.08812 3.29758
RightLeg  26.1884 1.09299 0.345764
RightFoot  -5.51174 0.0971463 -2.64509
RightToes  -2.9104e-010 0 -3.6325e-017
Spine  9.45825 -3.63354 3.52743
Spine1  3.68948 -4.35848 8.68424
HEad  -12.3618 0.402895 -2.19981
LeftShoulder1  -1.20902 6.65657 -32.1578
LeftArm  -13.5793 17.6751 -36.2477
LeftForeArm  22.4579 -13.2872 -3.37628
LeftHand  -0.0526724 7.14009 -0.912379
RightShoulder  -1.52545 -7.90093 28.2186
RightArm  -11.4973 -33.3804 40.1472
RightForeArm  -19.6809 6.18365 -2.87276
RightHand  -0.360533 4.73969 -4.42044
LeftUpLeg  -2.83723 -0.437934 6.20319
LeftLeg  56.1435 -1.60596 -2.11443
LeftFoot  7.4513 0.866515 -5.32044
LeftToes  -3.37426e-010 -1.91496e-010 5.23909e-011
583
root  -33.1147 38.8105 -2.50257 18.6705 -81.9509 -24.7777
RightUpLeg  -12.9007 -4.52022 3.24381
RightLeg  25.434 1.7912 0.662186
RightFoot  -6.87845 0.0608389 -2.75114
RightToes  -2.9104e-010 0 -3.6325e-017
Spine  9.40453 -3.34074 4.55927
Spine1  3.90232 -3.6721 7.53904
HEad  -12.0062 1.13321 -2.65771
LeftShoulder1  -1.19279 6.56896 -32.711
LeftArm  -12.7651 15.6492 -38.1195
LeftForeArm  25.6031 -10.9302 -3.92368
LeftHand  -0.0623636 6.82055 -1.54058
RightShoulder  -1.58708 -7.94937 29.2476
RightArm  -9.11522 -26.8924 43.24
RightForeArm  -12.5401 8.75277 -1.187
RightHand  -0.389346 5.00718 -4.64969
LeftUpLeg  -7.14813 0.988192 6.12374
LeftLeg  60.9821 -0.8324 -1.07025
LeftFoot  4.76911 0.640213 -4.72804
LeftToes  -3.37426e-010 -1.91496e-010 5.23909e-011
584
root  -34.2 39.0743 -2.42499 17.2868 -83.9137 -23.4229
RightUpLeg  -10.3521 -4.03266 2.44605
RightLeg  24.1352 2.9775 1.02344
RightFoot  -8.01458 0.0295952 -2.89388
RightToes  -2.9104e-010 0 -3.6325e-017
Spine  9.23463 -2.82047 5.28937
Spine1  3.37231 -2.71823 5.57876
HEad  -10.5696 2.03438 -3.09186
LeftShoulder1  -1.01171 6.1509 -32.0551
LeftArm  -12.5893 13.7736 -40.0296
LeftForeArm  28.2277 -8.13841 -4.09615
LeftHand  -0.0979319 7.24546 -3.44124
RightShoulder  -1.50414 -7.69506 29.4111
RightArm  -7.83957 -21.4763 45.1681
RightForeArm  -3.33024 13.292 0.613228
RightHand  -0.342941 5.65768 -3.91803
LeftUpLeg  -10.8804 2.66457 5.01073
LeftLeg  61.9552 -0.439224 -0.309772
LeftFoot  3.8753 0.411523 -3.26104
LeftToes  -3.37426e-010 -1.91496e-010 5.23909e-011
585
root  -35.2801 39.2817 -2.32692 16.2672 -85.3398 -22.2286
RightUpLeg  -8.11061 -4.62191 1.76605
RightLeg  23.01 4.89478 1.5386
RightFoot  -9.09475 0.00176192 -3.21816
RightToes  -2.9104e-010 0 -3.6325e-017
Spine  8.8609 -2.28913 6.00555
Spine1  2.7016 -1.9876 4.55106
HEad  -9.67312 3.30912 -4.49523
LeftShoulder1  -0.92489 5.94823 -31.6736
LeftArm  -12.3631 11.3802 -40.6383
LeftForeArm  28.3078 -5.42792 -3.93089
LeftHand  -0.0637935 6.33361 -3.1496
RightShoulder  -1.30636 -7.26254 28.259
RightArm  -10.6836 -17.5124 45.7387
RightForeArm  8.9455 19.9256 2.79397
RightHand  -0.275172 5.6731 -3.21098
LeftUpLeg  -14.4264 3.64315 4.15123
LeftLeg  60.1994 -0.595801 -0.560235
LeftFoot  2.00057 0.32511 -2.8835
LeftToes  -3.37426e-010 -1.91496e-010 5.23909e-011
586
root  -36.384 39.4506 -2.22055 12.8747 -86.4344 -18.9469
RightUpLeg  -5.46687 -5.5812 0.957865
RightLeg  21.7863 6.8788 1.89175
RightFoot  -10.3242 -0.0401632 -3.29818
RightToes  -2.9104e-010 0 -3.6325e-017
Spine  8.73037 -1.65851 7.16111
Spine1  2.03956 -1.03494 2.90359
HEad  -8.69524 3.22591 -5.1681
LeftShoulder1  -0.731976 5.50451 -30.337
LeftArm  -12.525 9.16057 -40.6874
LeftForeArm  27.9879 -4.18397 -3.72021
LeftHand  -0.0998859 7.40306 -3.16112
RightShoulder  -1.17418 -6.9999 27.0958
RightArm  -12.729 -14.7718 43.961
RightForeArm  18.5662 28.5807 5.2844
RightHand  -0.32212 5.27486 -3.79957
LeftUpLeg  -16.8248 4.18989 3.36292
LeftLeg  55.5342 -1.00854 -1.08383
LeftFoot  -0.048407 0.23982 -2.41856
LeftToes  -3.37426e-010 -1.91496e-010 5.23909e-011
587
root  -37.5232 39.5924 -2.11548 4.83923 -86.9158 -11.0729
RightUpLeg  -2.5273 -6.9128 -0.0825364
RightLeg  20.2729 8.5979 2.14257
RightFoot  -11.4986 -0.0830831 -3.45317
RightToes  -2.9104e-010 0 -3.6325e-017
Spine  8.01164 -1.24493 8.09947
Spine1  2.22236 -0.33714 0.830279
HEad  -8.35741 3.4611 -5.54526
LeftShoulder1  -0.529979 5.06478 -27.8487
LeftArm  -12.9189 7.89808 -40.0773
LeftForeArm  28.3736 -5.53342 -3.66068
LeftHand  -0.0925674 7.37878 -2.86772
RightShoulder  -1.03871 -6.64201 26.4571
RightArm  -12.3159 -11.8198 39.8567
RightForeArm  23.0491 36.4037 6.88225
RightHand  -0.40897 5.61104 -4.6369
LeftUpLeg  -18.1903 4.27989 2.60407
LeftLeg  48.1565 -1.32151 -1.17509
LeftFoot  -1.5544 0.173109 -1.92227
LeftToes  -3.37426e-010 -1.91496e-010 5.23909e-011
588
root  -38.6727 39.6812 -2.02197 0.595673 -87.1608 -6.91388
RightUpLeg  0.437711 -7.7876 -0.801212
RightLeg  18.5384 9.72125 2.15659
RightFoot  -12.4402 -0.122791 -4.04502
RightToes  -2.9104e-010 0 -3.6325e-017
Spine  7.14101 -0.556043 8.10962
Spine1  2.44802 0.160474 0.746982
HEad  -8.0611 3.26451 -5.90859
LeftShoulder1  -0.417874 4.75489 -27.0661
LeftArm  -13.0339 5.85435 -37.5
LeftForeArm  28.0916 -6.76637 -3.75721
LeftHand  -0.0790626 7.44193 -1.80692
RightShoulder  -0.702704 -5.83225 23.5101
RightArm  -14.4713 -9.83255 35.6151
RightForeArm  27.8892 41.7057 8.11987
RightHand  -0.388409 4.8213 -4.70934
LeftUpLeg  -18.6164 4.94572 2.35805
LeftLeg  38.4803 -0.989338 -0.518242
LeftFoot  -1.57364 0.186365 -2.05461
LeftToes  -3.37426e-010 -1.91496e-010 5.23909e-011
589
root  -39.8268 39.7557 -1.92006 -2.95526 -87.1175 -3.1304
RightUpLeg  3.2155 -8.31562 -1.51025
RightLeg  16.5162 10.3912 2.06414
RightFoot  -13.3915 -0.159245 -3.91252
RightToes  -2.9104e-010 0 -3.6325e-017
Spine  6.06807 0.0371026 8.43008
Spine1  2.44742 0.763962 -0.509255
HEad  -7.81538 2.2521 -5.63359
LeftShoulder1  -0.180738 4.09088 -24.8497
LeftArm  -12.9316 4.59624 -34.9784
LeftForeArm  26.7865 -8.70078 -4.04174
LeftHand  -0.0339544 6.43784 -0.100751
RightShoulder  -0.518161 -5.34017 21.4113
RightArm  -15.8673 -7.04171 29.4963
RightForeArm  28.4919 42.3009 8.28989
RightHand  -0.463484 5.61079 -5.17986
LeftUpLeg  -18.1868 5.07213 2.09775
LeftLeg  26.5189 -0.427696 0.135388
LeftFoot  -0.421701 0.28678 -2.98033
LeftToes  -3.37426e-010 -1.91496e-010 5.23909e-011
590
root  -40.9874 39.7681 -1.81384 -1.1864 -86.9434 -4.78583
RightUpLeg  6.05008 -8.19334 -1.74408
RightLeg  14.5764 10.388 1.64242
RightFoot  -14.5131 -0.187103 -3.19068
RightToes  -2.9104e-010 0 -3.6325e-017
Spine  5.52618 0.374606 8.87736
Spine1  1.80509 1.25062 -2.26564
HEad  -6.66207 1.87323 -4.95218
LeftShoulder1  -0.103505 3.86409 -21.8146
LeftArm  -13.5148 3.62459 -32.5943
LeftForeArm  26.0026 -10.5604 -3.81833
LeftHand  -0.0374305 6.04156 -0.494363
RightShoulder  -0.350762 -4.82536 19.3388
RightArm  -16.3351 -3.72786 22.9539
RightForeArm  24.903 37.7973 7.18318
RightHand  -0.59983 6.81167 -6.05127
LeftUpLeg  -16.938 4.73566 2.30379
LeftLeg  13.781 -0.889083 0.0283089
LeftFoot  -0.0668087 0.343609 -3.47802
LeftToes  -3.37426e-010 -1.91496e-010 5.23909e-011
591
root  -42.1559 39.757 -1.70424 -2.22198 -86.9586 -3.64038
RightUpLeg  8.85832 -8.15283 -2.21604
RightLeg  12.6754 10.4768 1.41331
RightFoot  -15.3 -0.214406 -3.20425
RightToes  -2.9104e-010 0 -3.6325e-017
Spine  5.40054 0.839816 8.34758
Spine1  0.55106 1.69816 -2.98885
HEad  -5.37521 1.95503 -4.02144
LeftShoulder1  0.144313 2.95286 -19.4847
LeftArm  -14.9277 3.31223 -29.4373
LeftForeArm  25.2107 -11.5903 -3.18225
LeftHand  -0.0316021 5.79998 0.310799
RightShoulder  -0.135477 -4.07603 16.0409
RightArm  -16.5361 -0.673836 17.5224
RightForeArm  20.5914 29.5305 5.2475
RightHand  -0.551119 7.20719 -5.4206
LeftUpLeg  -15.4676 3.61622 2.5735
LeftLeg  1.85249 -0.794446 0.156257
LeftFoot  0.0304471 0.36855 -3.69498
LeftToes  -3.37426e-010 -1.91496e-010 5.23909e-011
592
root  -43.4036 39.5849 -1.54624 -0.680206 -86.9071 -5.08456
RightUpLeg  10.9627 -8.03131 -2.59583
RightLeg  12.5971 10.5206 1.42203
RightFoot  -16.9049 -0.268925 -3.1831
RightToes  -2.9104e-010 0 -3.6325e-017
Spine  4.74074 0.99468 7.70666
Spine1  0.288816 1.83891 -3.38667
HEad  -4.8522 1.78513 -3.30187
LeftShoulder1  0.23592 2.49039 -16.6201
LeftArm  -16.3801 3.59168 -26.2476
LeftForeArm  23.9658 -13.2051 -2.60882
LeftHand  -0.0300312 5.52683 0.201682
RightShoulder  0.0255461 -3.35736 13.5808
RightArm  -13.3039 3.67479 12.8087
RightForeArm  11.7048 18.46 2.36614
RightHand  -0.590605 7.7885 -5.56519
LeftUpLeg  -15.2663 3.71006 2.51295
LeftLeg  -4.47552 -0.331542 0.213303
LeftFoot  -0.986281 0.376209 -4.14465
LeftToes  -3.37426e-010 -1.91496e-010 5.23909e-011
593
root  -44.7015 39.2669 -1.31454 -0.0430908 -86.6568 -6.07809
RightUpLeg  13.1201 -7.60634 -2.93272
RightLeg  13.7074 10.0249 1.29851
RightFoot  -19.2602 -0.328453 -2.86001
RightToes  -2.9104e-010 0 -3.6325e-017
Spine  4.71045 1.07186 7.71098
Spine1  0.0564555 2.03646 -4.10755
HEad  -4.25805 1.35481 -2.84583
LeftShoulder1  0.302989 2.07004 -14.0621
LeftArm  -17.8179 3.42081 -22.7593
LeftForeArm  22.3812 -14.6173 -2.26481
LeftHand  -0.0265352 5.88248 0.362383
RightShoulder  0.107988 -2.87267 10.2797
RightArm  -7.45264 6.03802 10.1155
RightForeArm  1.58538 8.93582 -0.606654
RightHand  -0.419834 6.87526 -4.25661
LeftUpLeg  -16.0423 3.76896 2.36568
LeftLeg  -3.2077 0.907435 -0.109088
LeftFoot  -2.24338 0.434947 -5.28168
LeftToes  -3.37426e-010 -1.91496e-010 5.23909e-011
